<?xml version="1.0" encoding="utf-8"?>
<svg viewBox="0 0 375 375" width="0px" preserveAspectRatio="xMinYMid" xmlns="http://www.w3.org/2000/svg">
  <ellipse style="fill: rgb(244, 154, 193); stroke: rgb(244, 154, 193); fill-opacity: 0.5;" cx="128.052" cy="107.918" rx="16.261" ry="15.583"/>
  <ellipse style="fill: rgb(244, 154, 193); fill-opacity: 0.5; stroke: rgb(244, 154, 193);" cx="110.128" cy="53.479" rx="7.22" ry="7.836"/>
  <path style="fill: rgb(111, 177, 252); stroke: rgb(88, 141, 202); stroke-width: 0px;" d="M 43.222 236.076 C 48.414 212.94 79.494 208.604 100.423 204.009 C 128.896 197.757 158.206 212.191 187.215 211.491 C 211.172 210.913 234.681 199.986 258.586 201.862 C 291.098 204.413 329.096 205.3 353.074 229.989 C 366.721 244.041 380.714 270.429 371.776 288.608 C 350.457 331.967 286.204 327.651 242.319 321.37 C 205.966 316.167 178.591 287.687 144.647 278.026 C 117.971 270.434 87.071 280.682 62.669 266.912 C 52.628 261.246 40.484 248.276 43.222 236.076 Z"/>
  <path style="stroke: rgb(0, 0, 0); stroke-width: 0px; fill: rgb(247, 231, 92);" d="M 152.452 134.292 C 157.76 119.184 185.287 125.67 195.808 113.598 C 208.883 98.595 195.046 63.016 213.921 56.71 C 232.792 50.405 243.201 86.776 262.581 91.279 C 285.575 96.621 315.332 63.697 332.483 79.917 C 348.01 94.601 320.309 123.004 325.74 143.673 C 331.119 164.14 366.866 174.642 362.593 195.369 C 359.021 212.696 329.877 210.534 317.204 222.878 C 302.542 237.16 304.054 270.401 284.008 274.537 C 263.276 278.814 251.396 245.82 231.336 239.061 C 210.789 232.138 180.264 252.005 166.395 235.338 C 154.102 220.564 176.715 197.1 173.613 178.132 C 170.994 162.118 147.073 149.601 152.452 134.292 Z"/>
  <ellipse style="fill: rgb(244, 154, 193); fill-opacity: 0.5; stroke: rgb(244, 154, 193);" cx="159.807" cy="157.612" rx="6.925" ry="8.275"/>
  <ellipse style="fill: rgb(244, 154, 193); stroke: rgb(216, 202, 76); stroke-width: 0px;" cx="293.343" cy="119.156" rx="6.004" ry="7.619"/>
  <ellipse style="fill: rgb(244, 154, 193); stroke: rgb(216, 202, 76); stroke-width: 0px;" cx="228.523" cy="102.56" rx="3.666" ry="5.459"/>
  <ellipse style="fill: rgb(244, 154, 193); stroke: rgb(216, 202, 76); stroke-width: 0px;" cx="273.961" cy="231.46" rx="4.457" ry="5.193"/>
  <ellipse style="fill: rgb(244, 154, 193); stroke: rgb(216, 202, 76); stroke-width: 0px;" cx="320.906" cy="186.916" rx="5.54" ry="7.089"/>
  <ellipse style="fill: rgb(244, 154, 193); stroke: rgb(216, 202, 76); stroke-width: 0px;" cx="185.386" cy="144.683" rx="5.853" ry="6.942"/>
  <ellipse style="fill: rgb(244, 154, 193); stroke: rgb(244, 154, 193); fill-opacity: 0.5;" cx="259.148" cy="69.088" rx="6.925" ry="8.275"/>
  <ellipse style="fill: rgb(244, 154, 193); stroke: rgb(216, 202, 76); stroke-width: 0px;" cx="191.171" cy="209.754" rx="6.925" ry="8.275"/>
  <ellipse style="fill: rgb(244, 154, 193); stroke: rgb(244, 154, 193); fill-opacity: 0.5;" cx="102.878" cy="180.474" rx="16.261" ry="15.583"/>
  <ellipse style="stroke: rgb(0, 0, 0); fill: rgb(255, 255, 255); stroke-width: 0px;" cx="247.665" cy="168.937" rx="27.796" ry="30.449"/>
</svg>